<?xml version="1.0" standalone="no"?>
<!DOCTYPE svg PUBLIC "-//W3C//DTD SVG 20010904//EN"
 "http://www.w3.org/TR/2001/REC-SVG-20010904/DTD/svg10.dtd">
<svg version="1.0" xmlns="http://www.w3.org/2000/svg"
 width="700.000000pt" height="700.000000pt" viewBox="0 0 700.000000 700.000000"
 preserveAspectRatio="xMidYMid meet">
<metadata>
Created by potrace 1.14, written by Peter Selinger 2001-2017
</metadata>
<g transform="translate(0.000000,700.000000) scale(0.100000,-0.100000)"
fill="#000000" stroke="none">
<path d="M2638 6965 c-2 -1 -41 -6 -87 -9 -276 -23 -666 -140 -941 -283 -110
-57 -286 -171 -348 -226 -224 -197 -379 -397 -495 -638 -100 -208 -141 -370
-141 -559 -2 -273 51 -447 192 -635 125 -168 278 -277 495 -354 48 -17 87 -28
87 -26 0 2 11 0 24 -4 36 -14 151 -25 256 -24 269 1 514 107 685 295 206 228
256 532 130 790 -41 82 -66 118 -134 190 -110 117 -263 197 -431 227 -63 11
-229 6 -280 -7 -19 -5 -71 -20 -115 -32 -52 -15 -107 -23 -157 -23 -68 0 -83
3 -125 29 -104 64 -118 167 -44 317 105 211 326 432 537 536 113 56 356 129
490 147 27 3 52 8 55 10 28 17 350 24 474 11 247 -26 496 -139 676 -305 75
-70 191 -212 220 -270 7 -15 18 -34 24 -42 7 -8 33 -62 58 -120 64 -146 123
-359 142 -515 4 -27 8 -57 10 -65 26 -97 26 -755 1 -799 -2 -3 -6 -33 -10 -66
-3 -33 -8 -70 -10 -81 -3 -12 -7 -39 -10 -60 -39 -248 -147 -671 -216 -844
-10 -25 -34 -87 -54 -139 -71 -180 -217 -486 -282 -589 -19 -29 -34 -55 -34
-58 0 -33 -405 -602 -479 -674 -9 -8 -45 -49 -80 -90 -79 -92 -347 -360 -455
-455 -129 -113 -145 -127 -276 -231 -187 -149 -544 -411 -745 -547 -38 -26
-88 -59 -110 -75 -40 -28 -265 -181 -470 -320 -225 -152 -233 -159 -250 -210
-16 -45 1 -87 41 -102 67 -26 90 -17 482 180 355 179 528 268 667 344 33 18
96 53 140 76 44 24 97 54 117 67 21 12 39 23 42 23 2 0 73 40 158 89 574 330
1085 670 1428 950 247 201 536 487 695 686 22 28 43 52 46 55 17 14 201 269
263 365 304 464 533 1020 615 1495 66 382 39 792 -75 1129 -77 227 -210 463
-365 648 -87 103 -232 245 -312 306 -16 12 -41 32 -55 43 -118 94 -403 253
-582 324 -156 63 -210 77 -420 109 -36 6 -87 12 -115 15 -27 3 -79 8 -115 12
-63 6 -426 14 -432 9z"/>
<path d="M5885 6299 c-144 -25 -269 -117 -334 -244 -60 -120 -70 -270 -26
-395 42 -120 128 -214 240 -266 338 -155 703 89 689 459 -5 122 -50 223 -138
311 -113 113 -272 162 -431 135z"/>
<path d="M5850 4374 c-130 -34 -245 -126 -301 -239 -34 -70 -39 -87 -48 -180
-27 -282 186 -527 459 -528 150 0 258 43 356 143 186 189 186 489 0 676 -124
124 -299 172 -466 128z"/>
</g>
</svg>
