<?xml version="1.0" encoding="utf-8"?>
<!-- Generator: Adobe Illustrator 16.0.0, SVG Export Plug-In . SVG Version: 6.00 Build 0)  -->
<!DOCTYPE svg PUBLIC "-//W3C//DTD SVG 1.1//EN" "http://www.w3.org/Graphics/SVG/1.1/DTD/svg11.dtd">
<svg version="1.1" id="Layer_1" xmlns="http://www.w3.org/2000/svg" xmlns:xlink="http://www.w3.org/1999/xlink" x="0px" y="0px"
	 width="29.135px" height="61.324px" viewBox="0 0 29.135 61.324" style="enable-background:new 0 0 29.135 61.324;"
	 xml:space="preserve">
<style type="text/css">
<![CDATA[
	.st0{clip-path:url(#SVGID_2_);fill:#ffffff;}
]]>
</style>
<g>
	<defs>
		<rect id="SVGID_1_" y="0" width="29.135" height="61.324"/>
	</defs>
	<clipPath id="SVGID_2_">
		<use xlink:href="#SVGID_1_"  style="overflow:visible;"/>
	</clipPath>
	<path class="st0" d="M15.928,5.408l1.471,5.803c0.041,0.201,0.094,0.332,0.174,0.451c0.311,0.464,0.99,0.605,1.461,0.29
		c0.162-0.109,0.291-0.259,0.371-0.435l1.898-6.363c0.053-0.611-0.105-1.225-0.447-1.736c-0.504-0.756-1.35-1.207-2.26-1.207
		c-0.535,0-1.057,0.158-1.504,0.458C16.191,3.271,15.736,4.343,15.928,5.408 M5.587,59.113h17.948l2.598-4.649H2.991L5.587,59.113z
		 M0.141,19.556l3.834-6.86c0.193-0.35,0.563-0.566,0.965-0.566h10.418c-0.045-0.132-0.082-0.267-0.109-0.404l-1.473-5.809
		c-0.387-2.013,0.438-3.984,2.088-5.086C16.676,0.287,17.621,0,18.596,0c1.65,0,3.182,0.818,4.098,2.189
		c0.652,0.973,0.934,2.149,0.797,3.311c-0.008,0.063-0.02,0.126-0.039,0.187l-1.922,6.443h2.654c0.402,0,0.771,0.216,0.967,0.566
		l3.758,6.727c0.143,0.187,0.227,0.42,0.227,0.672c0,0.057-0.004,0.114-0.012,0.169v33.094c0,0.196-0.053,0.38-0.141,0.54
		l-3.832,6.858c-0.195,0.352-0.564,0.567-0.967,0.567H4.939c-0.402,0-0.772-0.216-0.965-0.567l-3.834-6.858
		C0.05,53.738,0,53.555,0,53.358V20.095C0,19.901,0.053,19.715,0.141,19.556 M26.912,21.201H2.211v31.052h24.701V21.201z
		 M2.991,18.99h23.142l-2.598-4.649H5.587L2.991,18.99z M14.562,49.888c-0.611,0-1.107-0.495-1.107-1.106v-5.319
		c-1.733-0.105-3.346-0.831-4.582-2.067c-1.524-1.523-2.268-3.627-2.043-5.772c0.054-0.519,0.466-0.929,0.986-0.983
		c2.074-0.219,4.133,0.482,5.639,1.915v-2.05c-1.422-1.342-2.227-3.196-2.227-5.167c0-2.153,0.961-4.166,2.637-5.525
		c0.406-0.329,0.986-0.329,1.392-0.001c1.676,1.358,2.637,3.372,2.637,5.526c0,1.97-0.805,3.824-2.227,5.167v2.05
		c1.506-1.433,3.564-2.134,5.639-1.915c0.521,0.055,0.932,0.465,0.986,0.983c0.225,2.147-0.521,4.25-2.044,5.773
		c-1.235,1.235-2.849,1.961-4.581,2.066v5.319C15.668,49.393,15.172,49.888,14.562,49.888 M9.023,36.833
		c0.105,1.125,0.598,2.184,1.412,2.999c0.814,0.814,1.865,1.307,3,1.412c-0.105-1.126-0.596-2.183-1.412-2.999
		C11.208,37.431,10.159,36.938,9.023,36.833 M20.1,36.833c-1.135,0.105-2.186,0.599-3,1.412c-0.814,0.815-1.307,1.873-1.412,2.999
		c1.135-0.105,2.186-0.598,2.998-1.412C19.502,39.016,19.994,37.958,20.1,36.833 M14.562,26.218
		c-0.723,0.871-1.123,1.967-1.123,3.12s0.4,2.249,1.123,3.119c0.721-0.871,1.121-1.966,1.121-3.119
		C15.684,28.184,15.283,27.089,14.562,26.218"/>
</g>
</svg>
