<?xml version="1.0" encoding="utf-8"?>
<!-- Generator: Adobe Illustrator 16.0.0, SVG Export Plug-In . SVG Version: 6.00 Build 0)  -->
<!DOCTYPE svg PUBLIC "-//W3C//DTD SVG 1.1//EN" "http://www.w3.org/Graphics/SVG/1.1/DTD/svg11.dtd">
<svg version="1.1" id="Layer_1" xmlns="http://www.w3.org/2000/svg" xmlns:xlink="http://www.w3.org/1999/xlink" x="0px" y="0px"
	 width="39.425px" height="57.485px" viewBox="0 0 39.425 57.485" style="enable-background:new 0 0 39.425 57.485;"
	 xml:space="preserve">
<style type="text/css">
<![CDATA[
	.st0{clip-path:url(#SVGID_2_);fill:#ffffff;}
]]>
</style>
<g>
	<defs>
		<rect id="SVGID_1_" y="0" width="39.425" height="57.485"/>
	</defs>
	<clipPath id="SVGID_2_">
		<use xlink:href="#SVGID_1_"  style="overflow:visible;"/>
	</clipPath>
	<path class="st0" d="M24.017,41.827c0.043,0.116,0.082,0.234,0.119,0.352c0.035,0.11,0.068,0.221,0.115,0.324l0.045,0.115
		c0.644,1.95,2.599,3.732,4.711,4.324c2.111-0.592,4.068-2.373,4.711-4.322l0.045-0.115c0.049-0.104,0.08-0.216,0.115-0.326
		c0.039-0.117,0.076-0.234,0.119-0.35c0.129-0.517,0.196-1.087,0.203-1.661c-0.617,0.312-1.268,0.553-1.931,0.708
		c-0.082,0.019-0.167,0.028-0.251,0.028s-0.168-0.01-0.252-0.028c-1.65-0.385-3.221-1.307-4.441-2.524
		C26.478,39.669,25.329,40.858,24.017,41.827 M12.103,38.35c-1.224,1.219-2.794,2.142-4.445,2.526
		c-0.083,0.019-0.167,0.028-0.252,0.028c-0.084,0-0.169-0.01-0.252-0.028c-0.662-0.155-1.311-0.396-1.93-0.708
		c0.006,0.573,0.075,1.144,0.204,1.659c0.043,0.115,0.081,0.232,0.118,0.349c0.036,0.111,0.068,0.222,0.117,0.327l0.045,0.115
		c0.644,1.95,2.599,3.732,4.71,4.324c2.113-0.592,4.068-2.373,4.711-4.322l0.045-0.113c0.048-0.105,0.081-0.217,0.116-0.328
		l0.134-0.412C14.101,40.841,12.95,39.664,12.103,38.35 M33.472,28.524c-0.973,1.649-2.514,3.07-4.282,3.961
		c-0.041,0.843-0.159,1.674-0.36,2.444c-0.013,0.045-0.025,0.089-0.043,0.132c-0.052,0.128-0.093,0.259-0.136,0.39
		c-0.063,0.203-0.136,0.433-0.239,0.667c0.889,1.24,2.215,2.149,3.607,2.539c2.111-0.591,4.066-2.372,4.71-4.321l0.045-0.115
		c0.05-0.104,0.082-0.217,0.118-0.327c0.037-0.117,0.074-0.233,0.119-0.349c0.248-0.997,0.27-2.198,0.062-3.231
		C35.892,29.393,34.687,28.794,33.472,28.524 M2.416,33.544c0.043,0.115,0.082,0.232,0.119,0.351
		c0.036,0.11,0.068,0.222,0.116,0.326l0.044,0.112c0.644,1.951,2.6,3.733,4.711,4.324c1.394-0.39,2.72-1.299,3.646-2.433
		l-0.038-0.111c-0.102-0.231-0.175-0.459-0.24-0.662c-0.042-0.132-0.083-0.264-0.134-0.393l-0.043-0.131
		c-0.202-0.771-0.322-1.6-0.362-2.442c-1.772-0.895-3.317-2.322-4.29-3.979c-1.782,0.375-3.092,1.354-3.587,1.772
		C2.145,31.318,2.163,32.534,2.416,33.544 M12.72,34.31c0.059,0.154,0.11,0.311,0.16,0.468c0.052,0.161,0.1,0.323,0.171,0.477
		l0.044,0.113c0.903,2.735,3.66,5.229,6.618,6.019c2.958-0.789,5.716-3.283,6.616-6.017l0.047-0.116
		c0.069-0.153,0.119-0.315,0.17-0.477c0.051-0.155,0.101-0.312,0.16-0.464c0.082-0.328,0.146-0.672,0.121-1.022
		c-0.084,0-0.168-0.011-0.252-0.029c-2.957-0.691-5.677-2.962-6.862-5.654c-1.184,2.692-3.906,4.963-6.864,5.654
		c-0.082,0.019-0.167,0.029-0.323,0.026C12.573,33.64,12.637,33.982,12.72,34.31 M17.211,43.366
		c-0.734,2.168-2.574,4.111-4.743,5.224l0.046,0.113c0.981,2.974,3.982,5.687,7.199,6.538c3.218-0.853,6.218-3.562,7.198-6.535
		l0.071-0.177c-2.192-1.052-4.032-2.995-4.767-5.163c-0.069-0.156-0.123-0.316-0.174-0.478c-0.674,0.307-1.369,0.548-2.078,0.713
		c-0.084,0.02-0.167,0.029-0.251,0.029c-0.085,0-0.169-0.01-0.252-0.029c-0.708-0.165-1.404-0.406-2.077-0.713
		C17.332,43.05,17.278,43.211,17.211,43.366 M21.232,25.336c0.048,0.127,0.088,0.255,0.129,0.384
		c0.041,0.126,0.078,0.254,0.136,0.374l0.043,0.113c0.723,2.188,2.92,4.185,5.287,4.836c2.368-0.651,4.566-2.647,5.287-4.834
		l0.045-0.113c0.055-0.119,0.092-0.246,0.133-0.372c0.041-0.13,0.084-0.259,0.133-0.386c0.281-1.127,0.303-2.487,0.062-3.649
		c-1.862-1.461-3.78-2.201-5.706-2.201c-2.822,0-4.945,1.601-5.605,2.166C20.929,22.822,20.945,24.2,21.232,25.336 M7.001,25.335
		c0.049,0.127,0.091,0.256,0.133,0.386c0.04,0.126,0.077,0.251,0.132,0.371l0.046,0.115c0.721,2.188,2.918,4.185,5.286,4.836
		c2.367-0.651,4.565-2.647,5.287-4.834l0.044-0.113c0.055-0.12,0.093-0.247,0.134-0.374c0.041-0.129,0.082-0.257,0.13-0.384
		c0.283-1.126,0.305-2.487,0.065-3.649c-1.863-1.461-3.781-2.201-5.707-2.201c-2.822,0-4.946,1.601-5.607,2.166
		C6.698,22.822,6.717,24.198,7.001,25.335 M20.943,10.828c0.769,0.173,1.55,0.26,2.339,0.26c2.061,0,4.064-0.6,5.793-1.738
		c2.418-1.589,4.055-4.061,4.584-6.879c-2.771-0.625-5.74-0.094-8.134,1.479C23.107,5.539,21.474,8.011,20.943,10.828
		 M16.143,13.299c-2.495,0-4.918-0.726-7.009-2.102C5.896,9.07,3.819,5.634,3.436,1.771C3.384,1.251,3.703,0.767,4.2,0.609
		C5.464,0.204,6.777,0,8.102,0c2.495,0,4.919,0.727,7.012,2.103c2.013,1.324,3.578,3.154,4.566,5.278
		c1.053-2.124,2.618-3.954,4.632-5.278C26.405,0.727,28.829,0,31.323,0c1.323,0,2.639,0.204,3.902,0.609
		c0.498,0.158,0.816,0.642,0.764,1.162c-0.386,3.863-2.462,7.299-5.699,9.427c-2.09,1.375-4.515,2.101-7.008,2.101
		c-0.83,0-1.652-0.08-2.466-0.238v6.096c1.287-0.855,3.37-1.88,5.964-1.88c2.553,0,5.043,0.988,7.402,2.938
		c0.179,0.148,0.307,0.349,0.365,0.573c0.422,1.617,0.422,3.549,0,5.166l-0.043,0.133c-0.041,0.102-0.074,0.207-0.108,0.313
		c1.483,0.475,2.954,1.268,4.372,2.44c0.18,0.149,0.307,0.349,0.365,0.574c0.388,1.486,0.388,3.261,0,4.748l-0.043,0.132
		c-0.035,0.09-0.065,0.183-0.094,0.275c-0.058,0.174-0.113,0.348-0.186,0.515c-0.459,1.354-1.35,2.621-2.488,3.638
		c0.168,1.234,0.102,2.567-0.201,3.725l-0.043,0.13c-0.035,0.091-0.064,0.184-0.095,0.275c-0.056,0.175-0.112,0.35-0.185,0.517
		c-0.926,2.73-3.608,5.107-6.541,5.793c-0.053,0.012-0.106,0.02-0.156,0.024l-0.109,0.271c-1.27,3.769-4.974,7.054-9.029,8.001
		c-0.083,0.02-0.167,0.029-0.251,0.029c-0.085,0-0.169-0.01-0.252-0.029c-4.055-0.947-7.76-4.233-9.029-8.004l-0.107-0.268
		c-0.054-0.005-0.106-0.013-0.158-0.024c-2.933-0.686-5.614-3.063-6.541-5.794c-0.071-0.168-0.129-0.342-0.186-0.516
		c-0.029-0.093-0.058-0.186-0.094-0.275l-0.043-0.131c-0.302-1.158-0.369-2.49-0.2-3.725c-1.14-1.018-2.03-2.285-2.489-3.64
		c-0.072-0.166-0.129-0.339-0.184-0.513c-0.031-0.092-0.06-0.186-0.096-0.276L0.291,34.16c-0.388-1.487-0.388-3.263,0-4.75
		c0.049-0.188,0.147-0.361,0.285-0.5c0.089-0.088,1.784-1.768,4.468-2.464c-0.049-0.156-0.082-0.26-0.123-0.362l-0.043-0.132
		c-0.422-1.618-0.422-3.549,0-5.167c0.049-0.189,0.147-0.362,0.285-0.5c0.122-0.123,3.037-3.009,7.388-3.009
		c2.072,0,4.103,0.651,6.056,1.939v-6.155C17.796,13.22,16.972,13.299,16.143,13.299 M5.767,2.471
		c0.528,2.818,2.164,5.29,4.582,6.878c2.39,1.573,5.359,2.103,8.131,1.479c-0.529-2.817-2.164-5.289-4.581-6.878
		C11.506,2.378,8.54,1.847,5.767,2.471"/>
</g>
</svg>
