<svg version="1.1" id="Layer_1" xmlns="http://www.w3.org/2000/svg" xmlns:xlink="http://www.w3.org/1999/xlink" x="0px" y="0px"
	 width="56.456px" height="57.485px" viewBox="0 0 56.456 57.485" style="enable-background:new 0 0 56.456 57.485;"
	 xml:space="preserve">
<style type="text/css">
<![CDATA[
	.st0{clip-path:url(#SVGID_2_);fill:#ffffff;}
]]>
</style>
<g>
	<defs>
		<rect id="SVGID_1_" y="0" width="56.456" height="57.485"/>
	</defs>
	<clipPath id="SVGID_2_">
		<use xlink:href="#SVGID_1_"  style="overflow:visible;"/>
	</clipPath>
	<path class="st0" d="M12.897,7.723V2.211H1.105C0.495,2.211,0,1.716,0,1.105C0,0.495,0.495,0,1.105,0h54.246
		c0.609,0,1.104,0.495,1.104,1.105c0,0.611-0.495,1.106-1.104,1.106H43.559v5.512h4.04c0.61,0,1.105,0.495,1.105,1.105v33.427
		c0,0.611-0.495,1.105-1.105,1.105h-2.535l-0.213,0.925c-1.799,7.772-8.633,13.2-16.622,13.2s-14.825-5.428-16.624-13.2
		l-0.213-0.925H8.856c-0.61,0-1.105-0.494-1.105-1.105V8.828c0-0.61,0.495-1.105,1.105-1.105H12.897z M9.962,9.934v31.216h2.309
		c0.515,0,0.961,0.355,1.077,0.857l0.412,1.78c1.563,6.764,7.514,11.487,14.468,11.487s12.902-4.724,14.468-11.487l0.41-1.78
		c0.116-0.502,0.562-0.857,1.077-0.857h2.309V9.934H9.962z M20.831,7.723h14.792V2.211H20.831V7.723z M37.835,7.723h3.513V2.211
		h-3.513V7.723z M15.108,7.723h3.511V2.211h-3.511V7.723z M33.802,25.23c1.157,0,2.099-0.732,2.099-1.631
		c0-0.9-0.949-1.631-2.116-1.631c-0.58,0-1.062-0.449-1.103-1.028c-0.077-1.106-1.011-1.973-2.122-1.973
		c-0.357,0-0.693,0.084-1.002,0.25c-0.264,0.141-0.571,0.169-0.855,0.081c-0.285-0.089-0.521-0.29-0.655-0.556
		c-0.592-1.169-1.771-1.895-3.082-1.895c-1.902,0-3.449,1.548-3.449,3.45c0,0.167,0.013,0.339,0.038,0.512
		c0.083,0.563-0.275,1.097-0.827,1.234c-0.867,0.215-1.472,0.855-1.472,1.556c0,0.899,0.94,1.631,2.097,1.631H33.802z M19.18,26.915
		c-1.277-0.667-2.137-1.904-2.137-3.316c0-1.429,0.895-2.722,2.262-3.382c0.043-3.084,2.566-5.581,5.66-5.581
		c1.808,0,3.466,0.844,4.524,2.253c0.348-0.088,0.708-0.133,1.07-0.133c1.941,0,3.615,1.298,4.155,3.09
		c1.94,0.379,3.397,1.918,3.397,3.753c0,1.42-0.869,2.662-2.157,3.328l0.001,1.63h0.622c2.286,0,4.147,1.86,4.147,4.146v4.043
		c0,2.287-1.861,4.148-4.147,4.148h-0.604l0.002,1.325c0,2.287-1.859,4.147-4.146,4.147h-8.502c-2.287,0-4.147-1.86-4.147-4.146
		V26.915z M33.765,27.439L21.391,27.44v14.781c0,1.067,0.869,1.935,1.936,1.935h8.502c1.067,0,1.936-0.867,1.936-1.935V27.439z
		 M35.96,30.768l0.01,7.916h0.608c1.067,0,1.936-0.869,1.936-1.938v-4.043c0-1.067-0.868-1.936-1.936-1.936H35.96z M29.934,41.971
		c-0.61,0-1.106-0.495-1.106-1.105V30.731c0-0.61,0.496-1.105,1.106-1.105s1.105,0.495,1.105,1.105v10.134
		C31.039,41.476,30.544,41.971,29.934,41.971 M25.221,41.971c-0.611,0-1.107-0.495-1.107-1.105V30.731
		c0-0.61,0.496-1.105,1.107-1.105c0.61,0,1.105,0.495,1.105,1.105v10.134C26.326,41.476,25.831,41.971,25.221,41.971"/>
</g>
</svg>
