<?xml version="1.0" encoding="utf-8"?>
<!-- Generator: Adobe Illustrator 16.0.0, SVG Export Plug-In . SVG Version: 6.00 Build 0)  -->
<!DOCTYPE svg PUBLIC "-//W3C//DTD SVG 1.1//EN" "http://www.w3.org/Graphics/SVG/1.1/DTD/svg11.dtd">
<svg version="1.1" id="Layer_1" xmlns="http://www.w3.org/2000/svg" xmlns:xlink="http://www.w3.org/1999/xlink" x="0px" y="0px"
	 width="405.583px" height="557.276px" viewBox="0 0 405.583 557.276" style="enable-background:new 0 0 405.583 557.276;"
	 xml:space="preserve">
<style type="text/css">
<![CDATA[
	.st0{fill:#48484A;}
	.st1{clip-path:url(#SVGID_2_);fill:#FFFFFF;}
]]>
</style>
<rect class="st0" width="405.583" height="557.276"/>
<g>
	<defs>
		<rect id="SVGID_1_" width="405.583" height="557.276"/>
	</defs>
	<clipPath id="SVGID_2_">
		<use xlink:href="#SVGID_1_"  style="overflow:visible;"/>
	</clipPath>
	<path class="st1" d="M154.662,222.177l4.149-38.922h21.798l4.413,38.922h23.611L186.059,49.099H154.92l-7.961,58.354
		c0,0-4.435,24.859-13.39,28.025c8.148,4.882,5.491,29.877,5.491,29.877v-0.001l-7.752,56.823H154.662z M169.71,80.498l8.305,80.181
		h-16.607L169.71,80.498z"/>
	<path class="st1" d="M288.291,49.099v22.576h22.575v44.586c-0.264,6.432-1.609,16.519-7.342,19.217
		c5.732,2.697,7.078,12.779,7.342,19.208v67.491H335V71.675h23.61V49.099H288.291z"/>
	<path class="st1" d="M56.578,160.41v22.845c0,27.505,11.417,41.518,33.994,41.518c23.353,0,35.031-15.311,35.031-45.93
		c0-4.151,0-7.784-0.521-18.163h-24.131c0.259,8.563,0.519,13.493,0.519,17.904c0,18.424-2.335,23.613-10.898,23.613
		c-7.786,0-9.861-3.893-9.861-18.942V88.024c0-15.051,2.075-18.943,9.861-18.943c8.563,0,10.898,5.19,10.898,24.392
		c0,3.632,0,6.227-0.519,11.936h24.131c0.26-7.007,0.521-10.38,0.521-13.753c0-30.101-11.678-45.15-35.031-45.15
		c-22.577,0-33.994,14.012-33.994,41.518v22.844c0,0-1.011,20.727-9.605,24.771C55.566,139.683,56.578,160.41,56.578,160.41"/>
	<path class="st1" d="M215.637,156.732v65.446h24.133v-73.436c3.634-0.259,4.411-0.259,8.563-1.037l14.013,74.473h25.947
		l-16.865-82.777c9.859-12.714,12.194-20.499,12.194-42.036c0-16.348-2.854-28.025-9.082-36.069
		c-7.004-9.081-15.827-12.196-35.289-12.196h-23.614v65.115c-0.165,6.072-1.306,18.258-7.692,21.263
		C214.331,138.483,215.472,150.663,215.637,156.732 M239.77,71.676h3.373c13.495,0,16.868,4.67,16.868,23.094
		c0,15.57-0.519,19.98-2.336,23.353c-2.335,4.412-6.746,6.229-14.532,6.229h-3.373V71.676z"/>
	<path class="st1" d="M90.424,354.594H75.203v-54.878H56.577v42.834c-0.041,3.812-0.634,17.116-6.896,20.062
		c6.262,2.947,6.855,16.25,6.896,20.064v50.631h18.626V372.02h15.221v61.288h18.628V299.716H90.424V354.594z"/>
	<path class="st1" d="M147.307,297.714c-9.412,0-17.826,4.204-22.231,10.813c-3.805,5.81-4.206,9.214-4.206,25.037v11.007
		c-0.145,5.216-1.126,15.496-6.535,18.041c5.409,2.546,6.39,12.826,6.535,18.042v18.605c0,15.82,0.599,19.228,4.206,25.034
		c4.405,6.811,12.819,11.015,22.231,11.015c9.414,0,17.825-4.204,22.232-11.015c3.605-5.807,4.207-9.013,4.207-25.034v-65.695
		c0-15.823-0.401-19.228-4.207-25.037C165.132,301.918,156.721,297.714,147.307,297.714 M155.118,407.069
		c0,7.613-2.403,10.817-7.811,10.817c-5.406,0-7.812-3.204-7.812-10.817v-81.114c0-7.61,2.406-10.816,7.812-10.816
		c5.408,0,7.811,3.206,7.811,10.816V407.069z"/>
	<path class="st1" d="M237.838,336.969c0-12.617-2.202-21.631-7.012-27.839c-5.405-7.012-12.216-9.415-27.236-9.415h-18.228v42.546
		c-0.036,3.43-0.582,17.336-6.993,20.353c6.411,3.016,6.957,16.922,6.993,20.351v50.344h18.626v-56.683
		c2.805-0.2,3.406-0.2,6.61-0.8l10.815,57.482h20.028l-13.019-63.892C236.034,359.604,237.838,353.593,237.838,336.969
		 M217.808,352.994c-1.801,3.404-5.205,4.806-11.215,4.806h-2.604v-40.656h2.604c10.415,0,13.019,3.604,13.019,17.824
		C219.611,346.984,219.21,350.39,217.808,352.994"/>
	<path class="st1" d="M280.502,356.197c-12.618-18.227-13.22-20.429-13.22-28.642c0-8.009,2.805-12.417,7.812-12.417
		c4.206,0,7.209,3.005,7.812,8.414c0.4,2.802,0.6,5.207,0.6,12.015l18.226-1.801c0-10.415-0.199-11.817-1.2-16.624
		c-2.404-12.019-11.617-19.428-24.235-19.428c-16.824,0-27.44,11.216-27.44,28.84c0,6.12,0.982,11.603,3.528,17.825l-0.019-0.021
		c0,0,3.567,9.862,1.602,18.254c11.538,4.809,17.345,12.892,17.356,12.907l1.968,2.91c8.414,12.617,11.416,17.624,11.416,26.235
		c0,8.614-3.002,13.221-8.411,13.221c-7.209,0-9.612-4.408-9.612-18.228v-5.807l-18.427,0.8c-0.201,3.206-0.201,5.007-0.201,7.212
		c0,11.614,1.402,17.224,5.811,23.231c5.205,7.011,12.216,10.214,22.229,10.214c17.426,0,27.239-10.013,27.239-27.839
		c0-11.416-4.806-25.034-13.42-37.652L280.502,356.197z"/>
	<path class="st1" d="M330.571,372.02h18.427v-17.426h-18.427v-37.452h26.438v-17.426h-45.063v46.083
		c-0.21,5.462-1.333,14.457-6.341,16.814c5.008,2.355,6.131,11.352,6.341,16.812v53.881h46.665v-17.424h-28.04V372.02z"/>
	<path class="st1" d="M56.744,443.933h9.873c7.321,0,12.035,2.775,12.035,8.875c0,3.827-2.162,6.879-6.489,7.986v0.223
		c5.381,0.778,8.764,3.772,8.764,8.819c0,7.045-5.324,10.649-13.589,10.649H56.744V443.933z M65.563,460.02
		c7.544,0,10.538-2.439,10.538-7.267c0-4.715-3.493-6.709-10.205-6.709h-6.599v13.976H65.563z M66.672,478.378
		c7.266,0,11.703-2.662,11.703-8.542c0-5.214-4.27-7.764-11.703-7.764h-7.375v16.306H66.672z"/>
	<path class="st1" d="M92.736,453.863h2.107l0.221,4.938h0.167c1.774-3.272,4.382-5.603,7.543-5.603c0.998,0,1.775,0.11,2.662,0.556
		l-0.554,2.217c-0.887-0.332-1.387-0.442-2.441-0.442c-2.385,0-5.213,1.83-7.265,6.822v18.136h-2.44V453.863z"/>
	<path class="st1" d="M123.569,453.198c6.323,0,10.205,4.492,10.205,12.312c0,0.668,0,1.333-0.111,1.998h-19.191
		c0.111,6.712,4.049,11.536,10.039,11.536c2.885,0,5.158-0.942,7.156-2.386l0.997,1.886c-2.107,1.277-4.492,2.606-8.374,2.606
		c-6.822,0-12.314-5.211-12.314-13.921C111.976,458.523,117.634,453.198,123.569,453.198 M131.444,465.623
		c0-6.822-3.05-10.317-7.821-10.317c-4.548,0-8.596,3.937-9.151,10.317H131.444z"/>
	<path class="st1" d="M142.308,453.863h2.662l4.77,17.248c0.666,2.443,1.276,4.716,1.831,7.101h0.221
		c0.61-2.385,1.276-4.657,1.941-7.101l4.826-17.248h2.94l4.824,17.248c0.667,2.443,1.331,4.716,1.998,7.101h0.221
		c0.61-2.385,1.276-4.657,1.886-7.101l4.715-17.248h2.496l-7.655,26.623h-3.217l-4.658-16.528c-0.776-2.55-1.276-4.992-2.053-7.6
		h-0.221c-0.611,2.607-1.276,5.159-2.108,7.709l-4.604,16.419h-2.94L142.308,453.863z"/>
	<path class="st1" d="M187.559,445.267c0-1.389,0.999-2.22,2.219-2.22c1.22,0,2.218,0.831,2.218,2.22
		c0,1.273-0.998,2.162-2.218,2.162C188.558,447.429,187.559,446.541,187.559,445.267 M188.502,453.863h2.441v26.623h-2.441V453.863z
		"/>
	<path class="st1" d="M205.638,453.863h2.108l0.221,4.105h0.166c2.72-2.718,5.491-4.771,9.152-4.771
		c5.49,0,8.043,3.327,8.043,10.204v17.084h-2.44v-16.752c0-5.655-1.775-8.318-6.102-8.318c-3.162,0-5.436,1.665-8.708,4.991v20.079
		h-2.44V453.863z"/>
	<path class="st1" d="M241.295,479.489v-0.223c-1.332-0.777-2.33-2.221-2.33-4.272c0-2.385,1.72-4.047,2.884-4.879v-0.223
		c-1.663-1.442-3.327-4.105-3.327-7.322c0-5.489,4.159-9.371,9.373-9.371c1.443,0,2.662,0.332,3.494,0.664h9.04v2.053h-6.212
		c1.72,1.497,2.94,3.882,2.94,6.712c0,5.435-4.049,9.371-9.263,9.371c-1.496,0-3.217-0.387-4.437-1.106
		c-1.165,0.941-2.163,2.05-2.163,3.823c0,1.943,1.11,3.495,5.104,3.495h5.712c5.99,0,8.764,1.889,8.764,6.103
		c0,4.602-4.938,8.983-12.591,8.983c-6.711,0-10.927-2.882-10.927-7.377C237.356,483.59,238.855,481.264,241.295,479.489
		 M248.56,491.302c5.991,0,9.818-3.385,9.818-6.712c0-2.939-2.164-4.05-6.157-4.05h-5.713c-0.554,0-1.94-0.109-3.327-0.441
		c-2.44,1.661-3.495,3.714-3.495,5.602C239.686,489.028,242.903,491.302,248.56,491.302 M254.772,462.57
		c0-4.492-3.106-7.377-6.878-7.377s-6.933,2.83-6.933,7.377c0,4.495,3.217,7.49,6.933,7.49
		C251.555,470.06,254.772,467.065,254.772,462.57"/>
	<path class="st1" d="M299.856,443.269c4.271,0,7.544,2.107,9.484,4.382l-1.497,1.665c-1.998-2.22-4.66-3.717-7.987-3.717
		c-7.986,0-12.979,6.379-12.979,16.528c0,10.148,4.937,16.693,12.756,16.693c3.773,0,6.602-1.498,9.263-4.492l1.498,1.61
		c-2.773,3.217-6.101,5.212-10.869,5.212c-8.986,0-15.31-7.377-15.31-19.023C284.216,450.536,290.539,443.269,299.856,443.269"/>
	<path class="st1" d="M331.52,453.199c6.435,0,11.979,5.102,11.979,14.03c0,8.819-5.545,13.921-11.979,13.921
		c-6.378,0-11.925-5.102-11.925-13.921C319.595,458.3,325.142,453.199,331.52,453.199 M331.52,478.989
		c5.381,0,9.429-4.771,9.429-11.76c0-7.044-4.048-11.868-9.429-11.868c-5.379,0-9.373,4.824-9.373,11.868
		C322.146,474.218,326.141,478.989,331.52,478.989"/>
	<path class="st1" d="M356.361,476.104c1.221,0,2.33,0.941,2.33,2.552c0,1.553-1.109,2.495-2.33,2.495
		c-1.22,0-2.385-0.942-2.385-2.495C353.977,477.045,355.142,476.104,356.361,476.104"/>
	<path class="st1" d="M56.579,232.336h16.353c11.153,0,18.953,3.772,18.953,13.418c0,5.45-3.104,10.314-9.646,11.992v0.337
		c8.05,1.254,12.746,5.616,12.746,13.164c0,10.817-8.553,16.101-20.797,16.101H56.579V232.336z M71.758,255.819
		c9.307,0,13.249-3.357,13.249-9.48c0-5.952-4.444-8.47-12.914-8.47h-8.471v17.95H71.758z M73.183,281.816
		c9.392,0,14.928-3.44,14.928-10.904c0-6.792-5.284-9.895-14.928-9.895h-9.561v20.799H73.183z"/>
	<polygon class="st1" points="112.168,232.336 143.865,232.336 143.865,238.207 119.211,238.207 119.211,255.483 140.008,255.483 
		140.008,261.436 119.211,261.436 119.211,281.396 144.705,281.396 144.705,287.349 112.168,287.349 	"/>
	<polygon class="st1" points="162.644,232.336 194.427,232.336 194.427,238.207 169.687,238.207 169.687,256.825 190.653,256.825 
		190.653,262.695 169.687,262.695 169.687,287.349 162.644,287.349 	"/>
	<path class="st1" d="M206.325,259.591c0-17.609,9.729-28.26,23.566-28.26c13.752,0,23.479,10.734,23.479,28.26
		c0,17.696-9.728,28.763-23.479,28.763C216.055,288.354,206.325,277.287,206.325,259.591 M246.16,259.591
		c0-13.671-6.457-22.141-16.269-22.141c-9.897,0-16.354,8.47-16.354,22.141c0,13.754,6.456,22.644,16.354,22.644
		C239.703,282.235,246.16,273.345,246.16,259.591"/>
	<path class="st1" d="M301.664,287.348l-13.252-23.229h-9.895v23.229h-7.043v-55.012h17.274c11.153,0,19.204,4.025,19.204,15.432
		c0,8.554-4.864,13.667-12.327,15.594l14.004,23.985H301.664z M278.518,258.416h9.224c8.556,0,13.251-3.523,13.251-10.647
		c0-7.215-4.695-9.811-13.251-9.811h-9.224V258.416z"/>
	<polygon class="st1" points="326.478,232.336 358.175,232.336 358.175,238.207 333.521,238.207 333.521,255.483 354.317,255.483 
		354.317,261.436 333.521,261.436 333.521,281.396 359.014,281.396 359.014,287.349 326.478,287.349 	"/>
	<path class="st1" d="M140.666,508.004h3.144c2.258,0,3.767,0.763,3.767,3.005c0,2.148-1.541,3.16-3.767,3.16h-1.837v4.047h-1.307
		V508.004z M143.639,513.111c1.79,0,2.646-0.653,2.646-2.102c0-1.479-0.887-1.961-2.646-1.961h-1.666v4.062H143.639z"/>
	<path class="st1" d="M150.206,513.064c0-3.269,1.806-5.246,4.375-5.246c2.553,0,4.359,1.993,4.359,5.246
		c0,3.285-1.806,5.339-4.359,5.339C152.012,518.403,150.206,516.349,150.206,513.064 M157.601,513.064
		c0-2.538-1.199-4.109-3.02-4.109c-1.837,0-3.036,1.571-3.036,4.109c0,2.553,1.199,4.203,3.036,4.203
		C156.402,517.267,157.601,515.617,157.601,513.064"/>
	<path class="st1" d="M167.904,518.217l-2.46-4.312h-1.837v4.312H162.3v-10.213h3.206c2.071,0,3.565,0.747,3.565,2.865
		c0,1.587-0.903,2.537-2.288,2.895l2.599,4.453H167.904z M163.607,512.846h1.712c1.588,0,2.46-0.654,2.46-1.977
		c0-1.34-0.872-1.821-2.46-1.821h-1.712V512.846z"/>
	<polygon class="st1" points="174.332,509.094 171.233,509.094 171.233,508.004 178.721,508.004 178.721,509.094 175.624,509.094 
		175.624,518.216 174.332,518.216 	"/>
	<path class="st1" d="M181.148,515.991c0.731,0.763,1.743,1.276,2.818,1.276c1.338,0,2.132-0.67,2.132-1.666
		c0-1.043-0.747-1.369-1.712-1.806l-1.463-0.638c-0.95-0.405-2.071-1.138-2.071-2.631c0-1.557,1.37-2.708,3.222-2.708
		c1.214,0,2.289,0.513,3.005,1.261l-0.685,0.84c-0.623-0.591-1.385-0.965-2.32-0.965c-1.151,0-1.914,0.576-1.914,1.494
		c0,0.98,0.903,1.354,1.697,1.696l1.463,0.623c1.183,0.515,2.101,1.215,2.101,2.725c0,1.619-1.338,2.911-3.487,2.911
		c-1.432,0-2.677-0.593-3.564-1.511L181.148,515.991z"/>
	<path class="st1" d="M190.58,508.004h1.541l1.977,5.48l0.732,2.085h0.062l0.716-2.085l1.961-5.48h1.526v10.213h-1.23v-5.62
		c0-0.903,0.109-2.117,0.171-3.021h-0.062l-0.809,2.273l-1.962,5.34h-0.747l-1.961-5.34l-0.81-2.273h-0.062
		c0.062,0.903,0.155,2.117,0.155,3.021v5.62h-1.198V508.004z"/>
	<path class="st1" d="M202.471,513.064c0-3.269,1.806-5.246,4.374-5.246c2.553,0,4.359,1.993,4.359,5.246
		c0,3.285-1.807,5.339-4.359,5.339C204.276,518.403,202.471,516.349,202.471,513.064 M209.865,513.064
		c0-2.538-1.198-4.109-3.021-4.109c-1.836,0-3.035,1.571-3.035,4.109c0,2.553,1.199,4.203,3.035,4.203
		C208.667,517.267,209.865,515.617,209.865,513.064"/>
	<path class="st1" d="M214.518,508.004h1.307v6.025c0,2.459,1.043,3.238,2.367,3.238c1.354,0,2.428-0.779,2.428-3.238v-6.025h1.245
		v5.993c0,3.285-1.588,4.405-3.673,4.405c-2.086,0-3.674-1.12-3.674-4.405V508.004z"/>
	<polygon class="st1" points="227.903,509.094 224.806,509.094 224.806,508.004 232.293,508.004 232.293,509.094 229.195,509.094 
		229.195,518.216 227.903,518.216 	"/>
	<polygon class="st1" points="235.28,508.004 236.587,508.004 236.587,512.286 241.336,512.286 241.336,508.004 242.628,508.004 
		242.628,518.217 241.336,518.217 241.336,513.407 236.587,513.407 236.587,518.217 235.28,518.217 	"/>
	<path class="st1" d="M245.973,520.116c0.872-0.389,1.401-1.059,1.401-1.898c-0.048,0.015-0.109,0.015-0.156,0.015
		c-0.498,0-0.918-0.311-0.918-0.887c0-0.561,0.436-0.903,0.949-0.903c0.67,0,1.073,0.576,1.073,1.51
		c0,1.339-0.777,2.382-2.039,2.911L245.973,520.116z"/>
	<path class="st1" d="M256.104,508.004h1.34l3.703,6.413l1.106,2.118h0.062c-0.062-1.027-0.171-2.179-0.171-3.253v-5.278h1.23
		v10.213h-1.339l-3.689-6.43l-1.105-2.102h-0.062c0.062,1.028,0.156,2.118,0.156,3.191v5.34h-1.23V508.004z"/>
	<polygon class="st1" points="267.342,508.004 268.649,508.004 268.649,512.286 273.398,512.286 273.398,508.004 274.69,508.004 
		274.69,518.217 273.398,518.217 273.398,513.407 268.649,513.407 268.649,518.217 267.342,518.217 	"/>
</g>
</svg>
