<?xml version="1.0" encoding="utf-8"?>
<!-- Generator: Adobe Illustrator 16.0.0, SVG Export Plug-In . SVG Version: 6.00 Build 0)  -->
<!DOCTYPE svg PUBLIC "-//W3C//DTD SVG 1.1//EN" "http://www.w3.org/Graphics/SVG/1.1/DTD/svg11.dtd">
<svg version="1.1" id="Layer_1" xmlns="http://www.w3.org/2000/svg" xmlns:xlink="http://www.w3.org/1999/xlink" x="0px" y="0px"
	 width="405.583px" height="557.276px" viewBox="0 0 405.583 557.276" style="enable-background:new 0 0 405.583 557.276;"
	 xml:space="preserve">
<style type="text/css">
<![CDATA[
	.st0{clip-path:url(#SVGID_2_);fill:#ffffff;}
]]>
</style>
<g>
	<defs>
		<rect id="SVGID_1_" width="405.583" height="557.276"/>
	</defs>
	<clipPath id="SVGID_2_">
		<use xlink:href="#SVGID_1_"  style="overflow:visible;"/>
	</clipPath>
	<path class="st0" d="M66.672,462.073h-7.375v16.306h7.375c7.266,0,11.703-2.662,11.703-8.542
		C78.375,464.622,74.105,462.073,66.672,462.073"/>
	<path class="st0" d="M123.623,455.305c-4.548,0-8.597,3.938-9.152,10.317h16.973C131.444,458.8,128.394,455.305,123.623,455.305"/>
	<path class="st0" d="M76.102,452.753c0-4.715-3.493-6.709-10.205-6.709h-6.6v13.976h6.267
		C73.106,460.02,76.102,457.581,76.102,452.753"/>
	<path class="st0" d="M85.008,246.34c0-5.953-4.445-8.47-12.915-8.47h-8.47v17.95h8.136C81.066,255.82,85.008,252.463,85.008,246.34
		"/>
	<path class="st0" d="M143.639,509.048h-1.666v4.062h1.666c1.79,0,2.646-0.652,2.646-2.101
		C146.285,509.53,145.397,509.048,143.639,509.048"/>
	<path class="st0" d="M167.779,510.87c0-1.339-0.872-1.821-2.46-1.821h-1.712v3.797h1.712
		C166.907,512.845,167.779,512.192,167.779,510.87"/>
	<path class="st0" d="M154.581,508.954c-1.837,0-3.036,1.572-3.036,4.11c0,2.553,1.199,4.203,3.036,4.203
		c1.821,0,3.02-1.65,3.02-4.203C157.601,510.526,156.401,508.954,154.581,508.954"/>
	<path class="st0" d="M147.307,417.885c5.408,0,7.811-3.203,7.811-10.816v-81.114c0-7.61-2.403-10.816-7.811-10.816
		c-5.406,0-7.811,3.206-7.811,10.816v81.114C139.496,414.682,141.9,417.885,147.307,417.885"/>
	<path class="st0" d="M247.896,455.193c-3.772,0-6.934,2.83-6.934,7.377c0,4.495,3.217,7.489,6.934,7.489
		c3.659,0,6.877-2.994,6.877-7.489C254.772,458.078,251.666,455.193,247.896,455.193"/>
	<path class="st0" d="M217.808,352.994c1.401-2.604,1.804-6.01,1.804-18.026c0-14.22-2.604-17.824-13.019-17.824h-2.604v40.656
		h2.604C212.603,357.799,216.007,356.398,217.808,352.994"/>
	<path class="st0" d="M63.623,261.016v20.799h9.561c9.392,0,14.927-3.439,14.927-10.904c0-6.792-5.284-9.895-14.927-9.895H63.623z"
		/>
	<path class="st0" d="M287.741,237.957h-9.224v20.458h9.224c8.556,0,13.251-3.522,13.251-10.646
		C300.992,240.553,296.297,237.957,287.741,237.957"/>
	<path class="st0" d="M257.675,118.123c1.817-3.373,2.336-7.784,2.336-23.353c0-18.424-3.373-23.094-16.868-23.094h-3.373v52.676
		h3.373C250.929,124.352,255.339,122.535,257.675,118.123"/>
	<polygon class="st0" points="169.71,80.498 161.408,160.679 178.015,160.679 	"/>
	<path class="st0" d="M229.891,237.45c-9.896,0-16.352,8.47-16.352,22.141c0,13.754,6.455,22.644,16.352,22.644
		c9.812,0,16.27-8.89,16.27-22.644C246.16,245.92,239.703,237.45,229.891,237.45"/>
	<path class="st0" d="M206.845,508.954c-1.837,0-3.034,1.572-3.034,4.11c0,2.553,1.197,4.203,3.034,4.203
		c1.821,0,3.021-1.65,3.021-4.203C209.865,510.526,208.666,508.954,206.845,508.954"/>
	<path class="st0" d="M248.56,491.302c5.991,0,9.818-3.385,9.818-6.712c0-2.939-2.164-4.05-6.157-4.05h-5.713
		c-0.554,0-1.94-0.11-3.327-0.442c-2.441,1.662-3.495,3.714-3.495,5.603C239.686,489.028,242.903,491.302,248.56,491.302"/>
	<path class="st0" d="M331.52,455.361c-5.379,0-9.373,4.823-9.373,11.868c0,6.989,3.994,11.76,9.373,11.76
		c5.381,0,9.429-4.771,9.429-11.76C340.948,460.184,336.9,455.361,331.52,455.361"/>
	<path class="st0" d="M0,557.276h405.583V0H0V557.276z M288.29,49.1h70.321v22.576h-23.612v150.502h-24.132v-67.491
		c-0.265-6.429-1.611-16.511-7.343-19.209c5.731-2.697,7.078-12.784,7.343-19.217V71.676H288.29V49.1z M309.629,287.348h-7.965
		l-13.252-23.229h-9.895v23.229h-7.043v-55.012h17.274c11.153,0,19.204,4.025,19.204,15.432c0,8.554-4.864,13.667-12.327,15.595
		L309.629,287.348z M215.637,114.214V49.1h23.614c19.461,0,28.285,3.115,35.289,12.196c6.228,8.045,9.082,19.721,9.082,36.069
		c0,21.538-2.336,29.323-12.194,42.037l16.865,82.776h-25.947l-14.013-74.473c-4.152,0.778-4.93,0.778-8.562,1.038v73.435h-24.134
		v-65.445c-0.166-6.069-1.307-18.25-7.691-21.255C214.33,132.474,215.471,120.287,215.637,114.214 M257.157,462.627
		c0,5.435-4.049,9.371-9.262,9.371c-1.497,0-3.218-0.387-4.438-1.107c-1.165,0.943-2.164,2.051-2.164,3.824
		c0,1.943,1.11,3.495,5.104,3.495h5.712c5.99,0,8.764,1.888,8.764,6.103c0,4.602-4.937,8.983-12.592,8.983
		c-6.71,0-10.926-2.882-10.926-7.376c0-2.33,1.499-4.657,3.938-6.432v-0.224c-1.331-0.776-2.33-2.22-2.33-4.271
		c0-2.385,1.721-4.047,2.886-4.879v-0.224c-1.663-1.441-3.328-4.104-3.328-7.321c0-5.489,4.159-9.371,9.374-9.371
		c1.441,0,2.662,0.332,3.493,0.665h9.04v2.052h-6.212C255.938,457.413,257.157,459.797,257.157,462.627 M178.37,362.614
		c6.41-3.018,6.956-16.923,6.993-20.353v-42.545h18.226c15.021,0,21.831,2.403,27.237,9.414c4.809,6.208,7.011,15.222,7.011,27.839
		c0,16.624-1.803,22.635-9.414,32.447l13.02,63.891h-20.028l-10.815-57.481c-3.203,0.6-3.806,0.6-6.61,0.8v56.682h-18.625v-50.343
		C185.326,379.536,184.78,365.629,178.37,362.614 M114.335,362.614c5.408-2.546,6.39-12.826,6.535-18.042v-11.006
		c0-15.824,0.401-19.229,4.206-25.037c4.405-6.61,12.819-10.814,22.23-10.814c9.415,0,17.826,4.204,22.233,10.814
		c3.806,5.809,4.207,9.213,4.207,25.037v65.693c0,16.022-0.602,19.229-4.207,25.035c-4.407,6.811-12.818,11.015-22.233,11.015
		c-9.411,0-17.825-4.204-22.23-11.015c-3.607-5.807-4.206-9.214-4.206-25.035v-18.604
		C120.725,375.439,119.743,365.159,114.335,362.614 M140.009,255.482v5.953h-20.798v19.96h25.494v5.952h-32.537v-55.012h31.698v5.87
		h-24.655v17.276H140.009z M169.687,262.695v24.653h-7.043v-55.012h31.782v5.87h-24.739v18.618h20.965v5.87H169.687z
		 M229.892,288.354c-13.838,0-23.566-11.066-23.566-28.762c0-17.609,9.729-28.26,23.566-28.26c13.752,0,23.48,10.734,23.48,28.26
		C253.372,277.288,243.644,288.354,229.892,288.354 M139.06,165.354c0,0,2.657-24.995-5.491-29.877
		c8.955-3.166,13.39-28.025,13.39-28.025v0.001L154.92,49.1h31.139l22.574,173.078h-23.611l-4.414-38.923h-21.797l-4.149,38.923
		h-23.354L139.06,165.354z M46.972,135.639c8.594-4.044,9.605-24.77,9.605-24.77V88.023c0-27.506,11.418-41.518,33.994-41.518
		c23.353,0,35.031,15.05,35.031,45.15c0,3.373-0.26,6.747-0.521,13.753h-24.13c0.519-5.708,0.519-8.303,0.519-11.936
		c0-19.202-2.336-24.392-10.899-24.392c-7.786,0-9.861,3.892-9.861,18.943v95.231c0,15.05,2.075,18.943,9.861,18.943
		c8.563,0,10.899-5.19,10.899-23.614c0-4.411-0.261-9.341-0.519-17.904h24.13c0.521,10.38,0.521,14.012,0.521,18.163
		c0,30.62-11.678,45.93-35.031,45.93c-22.576,0-33.994-14.012-33.994-41.518V160.41C56.577,160.41,55.566,139.684,46.972,135.639
		 M94.985,271.248c0,10.817-8.553,16.101-20.797,16.101H56.579v-55.012h16.353c11.153,0,18.953,3.772,18.953,13.418
		c0,5.45-3.104,10.314-9.646,11.992v0.337C90.289,259.337,94.985,263.7,94.985,271.248 M67.338,480.486H56.744v-36.553h9.873
		c7.321,0,12.035,2.775,12.035,8.875c0,3.827-2.162,6.88-6.489,7.986v0.224c5.381,0.776,8.764,3.771,8.764,8.818
		C80.927,476.881,75.603,480.486,67.338,480.486 M104.882,455.97c-0.888-0.333-1.388-0.441-2.441-0.441
		c-2.385,0-5.214,1.829-7.266,6.82v18.137h-2.44v-26.622h2.108l0.221,4.937h0.166c1.775-3.271,4.382-5.602,7.543-5.602
		c0.999,0,1.775,0.109,2.662,0.555L104.882,455.97z M109.052,433.307H90.424v-61.286H75.203v61.286H56.577v-50.631
		c-0.04-3.812-0.634-17.117-6.896-20.062c6.262-2.947,6.856-16.25,6.896-20.064v-42.833h18.626v54.877h15.221v-54.877h18.628
		V433.307z M133.662,467.506h-19.191c0.112,6.712,4.05,11.537,10.039,11.537c2.885,0,5.159-0.943,7.156-2.385l0.997,1.885
		c-2.107,1.277-4.492,2.607-8.374,2.607c-6.822,0-12.314-5.212-12.314-13.921c0-8.707,5.659-14.031,11.593-14.031
		c6.323,0,10.205,4.492,10.205,12.311C133.773,466.177,133.773,466.841,133.662,467.506 M143.81,514.169h-1.837v4.047h-1.308
		v-10.212h3.145c2.257,0,3.767,0.764,3.767,3.005C147.577,513.158,146.036,514.169,143.81,514.169 M154.58,518.404
		c-2.568,0-4.374-2.055-4.374-5.339c0-3.27,1.806-5.246,4.374-5.246c2.553,0,4.359,1.992,4.359,5.246
		C158.939,516.349,157.133,518.404,154.58,518.404 M167.904,518.216l-2.46-4.312h-1.837v4.312H162.3v-10.212h3.206
		c2.071,0,3.565,0.748,3.565,2.865c0,1.588-0.903,2.537-2.288,2.895l2.599,4.452H167.904z M166.767,480.486l-4.658-16.528
		c-0.776-2.55-1.276-4.992-2.053-7.6h-0.221c-0.611,2.607-1.276,5.16-2.108,7.709l-4.604,16.419h-2.94l-7.875-26.622h2.662
		l4.77,17.248c0.666,2.441,1.276,4.714,1.831,7.099h0.221c0.61-2.385,1.276-4.657,1.941-7.099l4.826-17.248h2.94l4.824,17.248
		c0.667,2.441,1.331,4.714,1.998,7.099h0.221c0.61-2.385,1.276-4.657,1.886-7.099l4.715-17.248h2.496l-7.655,26.622H166.767z
		 M178.721,509.094h-3.098v9.122h-1.292v-9.122h-3.098v-1.09h7.488V509.094z M183.935,518.404c-1.433,0-2.678-0.592-3.565-1.51
		l0.778-0.903c0.732,0.763,1.744,1.277,2.818,1.277c1.338,0,2.132-0.671,2.132-1.666c0-1.044-0.747-1.37-1.712-1.807l-1.463-0.638
		c-0.95-0.405-2.071-1.137-2.071-2.631c0-1.557,1.37-2.708,3.223-2.708c1.214,0,2.288,0.513,3.004,1.26l-0.685,0.841
		c-0.623-0.591-1.385-0.965-2.319-0.965c-1.152,0-1.915,0.576-1.915,1.494c0,0.98,0.903,1.354,1.697,1.697l1.463,0.622
		c1.183,0.515,2.102,1.215,2.102,2.725C187.422,517.112,186.083,518.404,183.935,518.404 M187.559,445.266
		c0-1.388,0.999-2.22,2.219-2.22c1.22,0,2.218,0.832,2.218,2.22c0,1.275-0.998,2.162-2.218,2.162
		C188.558,447.428,187.559,446.542,187.559,445.266 M188.501,453.864h2.441v26.623h-2.441V453.864z M199.095,518.216h-1.23v-5.62
		c0-0.902,0.109-2.115,0.171-3.019h-0.062l-0.81,2.271l-1.961,5.341h-0.747l-1.961-5.341l-0.81-2.271h-0.062
		c0.062,0.903,0.155,2.116,0.155,3.019v5.62h-1.198v-10.212h1.541l1.977,5.48l0.732,2.086h0.062l0.716-2.086l1.961-5.48h1.526
		V518.216z M206.845,518.404c-2.568,0-4.375-2.055-4.375-5.339c0-3.27,1.807-5.246,4.375-5.246c2.554,0,4.359,1.992,4.359,5.246
		C211.204,516.349,209.398,518.404,206.845,518.404 M221.865,513.998c0,3.285-1.588,4.406-3.674,4.406s-3.674-1.121-3.674-4.406
		v-5.993h1.308v6.025c0,2.459,1.043,3.238,2.366,3.238c1.354,0,2.428-0.779,2.428-3.238v-6.025h1.246V513.998z M216.786,455.416
		c-3.162,0-5.436,1.665-8.708,4.992v20.078h-2.441v-26.622h2.109l0.221,4.104h0.166c2.72-2.717,5.491-4.769,9.152-4.769
		c5.491,0,8.043,3.327,8.043,10.204v17.083h-2.441v-16.751C222.887,458.078,221.112,455.416,216.786,455.416 M232.293,509.094
		h-3.098v9.122h-1.292v-9.122h-3.098v-1.09h7.487V509.094z M242.628,518.216h-1.292v-4.81h-4.748v4.81h-1.308v-10.212h1.308v4.282
		h4.748v-4.282h1.292V518.216z M246.284,520.864l-0.312-0.748c0.871-0.389,1.4-1.059,1.4-1.899
		c-0.047,0.017-0.108,0.017-0.155,0.017c-0.498,0-0.919-0.312-0.919-0.888c0-0.561,0.437-0.902,0.95-0.902
		c0.669,0,1.074,0.576,1.074,1.51C248.323,519.291,247.545,520.334,246.284,520.864 M263.374,518.216h-1.339l-3.689-6.429
		l-1.104-2.102h-0.062c0.062,1.027,0.155,2.117,0.155,3.191v5.339h-1.229v-10.212h1.338l3.705,6.414l1.105,2.117h0.062
		c-0.062-1.028-0.172-2.179-0.172-3.253v-5.278h1.229V518.216z M274.69,518.216h-1.292v-4.81h-4.748v4.81h-1.309v-10.212h1.309
		v4.282h4.748v-4.282h1.292V518.216z M253.864,425.094c-4.407-6.008-5.809-11.616-5.809-23.23c0-2.205,0-4.006,0.199-7.212
		l18.428-0.8v5.807c0,13.819,2.403,18.227,9.612,18.227c5.408,0,8.411-4.605,8.411-13.22c0-8.611-3.003-13.618-11.416-26.236
		l-1.968-2.908c-0.011-0.017-5.818-8.1-17.356-12.907c1.966-8.394-1.603-18.255-1.603-18.255l0.02,0.02
		c-2.547-6.222-3.527-11.704-3.527-17.824c0-17.625,10.615-28.84,27.439-28.84c12.618,0,21.831,7.41,24.234,19.429
		c1.001,4.806,1.202,6.207,1.202,16.623l-18.228,1.802c0-6.809-0.197-9.214-0.599-12.017c-0.603-5.407-3.605-8.413-7.812-8.413
		c-5.007,0-7.811,4.407-7.811,12.416c0,8.214,0.602,10.416,13.22,28.643l9.412,13.621c8.614,12.618,13.42,26.236,13.42,37.652
		c0,17.825-9.812,27.839-27.24,27.839C266.081,435.309,259.069,432.106,253.864,425.094 M299.524,481.151
		c-8.985,0-15.309-7.377-15.309-19.023c0-11.592,6.323-18.858,15.642-18.858c4.271,0,7.543,2.107,9.483,4.383l-1.497,1.665
		c-1.998-2.221-4.659-3.719-7.986-3.719c-7.987,0-12.979,6.381-12.979,16.529c0,10.149,4.938,16.693,12.756,16.693
		c3.772,0,6.602-1.497,9.264-4.492l1.497,1.61C307.621,479.156,304.294,481.151,299.524,481.151 M305.605,362.614
		c5.008-2.357,6.13-11.353,6.34-16.814v-46.083h45.064v17.427h-26.438v37.45h18.427v17.428h-18.427v43.862h28.04v17.424h-46.666
		v-53.881C311.735,373.965,310.613,364.969,305.605,362.614 M331.52,481.151c-6.378,0-11.926-5.103-11.926-13.921
		c0-8.93,5.548-14.031,11.926-14.031c6.435,0,11.979,5.102,11.979,14.031C343.499,476.048,337.954,481.151,331.52,481.151
		 M356.361,481.151c-1.22,0-2.385-0.942-2.385-2.495c0-1.61,1.165-2.552,2.385-2.552c1.221,0,2.33,0.941,2.33,2.552
		C358.691,480.208,357.582,481.151,356.361,481.151 M359.015,287.348h-32.536v-55.012h31.696v5.87h-24.653v17.276h20.797v5.953
		h-20.797v19.96h25.493V287.348z"/>
</g>
</svg>
